<svg width="48" height="48" viewBox="0 0 48 48" fill="none" xmlns="http://www.w3.org/2000/svg">
<path d="M22.5 41.9999C21.22 41.9999 19.958 41.8299 18.714 41.4899C17.47 41.1499 16.264 40.6439 15.096 39.9719C15.8027 36.7599 16.9953 33.7566 18.674 30.9619C20.3527 28.1672 22.4387 25.6926 24.932 23.5379C22.0333 25.2259 19.518 27.3466 17.386 29.8999C15.254 32.4532 13.8087 35.3506 13.05 38.5919C12.89 38.4666 12.746 38.3459 12.618 38.2299C12.4887 38.1126 12.344 37.9746 12.184 37.8159C10.8493 36.4292 9.818 34.8839 9.09 33.1799C8.36333 31.4786 8 29.7186 8 27.8999C8 25.8892 8.39267 23.9726 9.178 22.1499C9.96333 20.3272 11.0653 18.7052 12.484 17.2839C14.8507 14.9172 17.8767 13.3772 21.562 12.6639C25.2473 11.9506 30.678 11.8112 37.854 12.2459C38.3513 19.2379 38.226 24.6079 37.478 28.3559C36.7287 32.1026 35.1747 35.1559 32.816 37.5159C31.4133 38.9692 29.8187 40.0799 28.032 40.8479C26.2453 41.6159 24.4013 41.9999 22.5 41.9999Z" fill="#36454F"/>
</svg>
