<svg width="48" height="48" viewBox="0 0 48 48" fill="none" xmlns="http://www.w3.org/2000/svg">
<path d="M23.9998 2.15625C17.2788 2.15625 11.8123 7.62281 11.8123 14.3437C11.8123 21.0647 17.2788 26.5312 23.9998 26.5312C30.7207 26.5312 36.1873 21.0647 36.1873 14.3437C36.1873 7.62281 30.7207 2.15625 23.9998 2.15625ZM23.2188 5.07441L22.115 8.37872L27.0036 7.86656L26.5174 6.22997L27.8884 6.60956V8.42522L30.03 8.56491L29.6111 6.93553L30.7367 6.28359C33.0382 8.20809 34.4998 11.1016 34.4998 14.3437C34.4998 15.9064 34.1599 17.3879 33.5506 18.7192L31.1009 19.1338V22.0849C30.6336 22.5137 30.1284 22.8994 29.5916 23.2371L28.5401 21.6013L26.4915 22.1601L27.0671 24.39C26.0726 24.6917 25.039 24.8446 23.9998 24.8437C21.0923 24.8437 18.4651 23.6686 16.5657 21.7663L18.4369 21.5083L19.6941 19.0406L15.6899 17.0387L18.53 14.6175L16.0625 12.5691L13.5413 13.4093C13.8331 10.0861 15.665 7.21219 18.322 5.50453L18.856 9.77541L23.2188 5.07441ZM26.8638 11.0947L23.4729 13.2675L26.436 15.9012L28.576 15.2757L28.3784 17.8436L32.2962 16.856L30.8146 13.498L28.4443 13.5309L30.5513 11.7202L26.8639 11.0947H26.8638ZM23.3414 14.8807L21.5306 15.6707L22.8145 16.6254L23.3414 14.8807ZM19.0887 15.1763L17.8317 16.666L21.3142 19.1137L19.0887 15.1763ZM24.6912 15.9999L23.4073 18.4034L26.502 20.5103L25.4154 18.9629L26.7652 17.3497L24.6912 15.9999ZM5.64071 18.5682C4.81402 18.5554 3.96793 19.6082 3.96305 22.3072C3.95574 26.4465 3.55468 27.6149 5.47027 32.2963C6.87493 35.7292 7.50483 38.3678 11.9998 40.5C12.5323 42.3771 12.3197 42.8184 11.9585 44.4225C11.6214 45.9201 15.0919 46.1953 17.6336 44.9337C20.3609 43.4461 20.132 39.3502 19.6448 36.5727C19.0782 33.3427 17.2954 32.6713 15.7501 31.2916C14.1456 28.9971 13.7722 24.8404 11.1699 23.1636C10.6264 22.8134 7.85396 22.4579 11.6632 31.9706C6.64093 30.7267 7.55574 24.9607 7.19255 20.6916C7.08437 19.4202 6.37008 18.5794 5.64071 18.5681V18.5682ZM42.3588 18.5682C41.6295 18.5795 40.9152 19.4202 40.807 20.6917C40.4438 24.9607 41.3586 30.7267 36.3363 31.9706C40.1457 22.4578 37.3731 22.8134 36.8296 23.1636C34.2273 24.8404 33.854 28.9971 32.2494 31.2917C30.7042 32.6713 28.9213 33.3427 28.3547 36.5727C27.8675 39.3502 27.6387 43.4461 30.366 44.9337C32.9076 46.1952 36.3781 45.9201 36.0409 44.4225C35.6798 42.8184 35.4673 42.3771 35.9998 40.5C40.4947 38.3678 41.1246 35.7292 42.5293 32.2963C44.4449 27.6149 44.0438 26.4465 44.0365 22.3072C44.0316 19.6082 43.1855 18.5554 42.3588 18.5682Z" fill="#36454F"/>
</svg>
