<svg width="49" height="48" viewBox="0 0 49 48" fill="none" xmlns="http://www.w3.org/2000/svg">
<path d="M34.2038 17.892C33.5038 17.318 32.4998 15.968 32.4998 12.7C32.4998 10.556 31.8198 8.864 30.7398 7.576C29.6838 6.312 28.3158 5.516 27.0398 5.006C25.9249 4.57381 24.7618 4.27832 23.5758 4.126C23.0429 4.05706 22.5069 4.01501 21.9698 4C17.4378 4 13.9898 5.24 11.4098 7.194C8.84779 9.134 7.24179 11.698 6.23579 14.188C5.23179 16.674 4.80579 19.138 4.62579 20.964C3.96979 27.658 5.42979 35.504 11.0018 39.834C15.0198 42.954 20.4118 44 26.0018 44C31.1518 44 35.7538 42.85 39.1078 40.37C42.5218 37.844 44.4998 34.04 44.5018 29.12C44.5018 24.48 42.3258 21.76 40.0878 20.254C39.1705 19.6428 38.1694 19.1678 37.1158 18.844C36.1558 18.548 35.0038 18.55 34.2038 17.892Z" fill="#36454F"/>
</svg>
