<svg width="80" height="79" viewBox="0 0 80 79" fill="none" xmlns="http://www.w3.org/2000/svg">
<g opacity="0.2">
<path fill-rule="evenodd" clip-rule="evenodd" d="M41.2898 2.03192C41.7222 2.03124 42.1434 2.16962 42.4911 2.42662C42.8389 2.68363 43.0948 3.04564 43.221 3.45922L50.9946 28.9933L74.2385 37.4885C74.6218 37.6289 74.9534 37.8824 75.1895 38.2154C75.4256 38.5484 75.5551 38.9452 75.5608 39.3534C75.5664 39.7615 75.4481 40.1618 75.2213 40.5012C74.9946 40.8407 74.6701 41.1033 74.2909 41.2543L51.2002 50.4269L43.221 77.1988C43.0967 77.6143 42.8416 77.9786 42.4936 78.2377C42.1457 78.4967 41.7235 78.6366 41.2898 78.6366C40.856 78.6366 40.4338 78.4967 40.0859 78.2377C39.738 77.9786 39.4829 77.6143 39.3585 77.1988L31.3793 50.4269L8.2886 41.2543C7.90937 41.1033 7.58492 40.8407 7.35818 40.5012C7.13143 40.1618 7.01307 39.7615 7.01875 39.3534C7.02443 38.9452 7.15389 38.5484 7.38999 38.2154C7.6261 37.8824 7.95773 37.6289 8.34102 37.4885L31.585 28.9933L39.3625 3.45922C39.4886 3.0463 39.7439 2.68477 40.0908 2.42782C40.4378 2.17088 40.858 2.0321 41.2898 2.03192Z" fill="#36454F"/>
<path d="M68.8276 78.4366C68.384 78.4366 68.0212 78.114 67.9809 77.7109C67.1745 69.647 66.5697 67.0666 58.9897 66.3812C58.7794 66.3611 58.5842 66.2631 58.4425 66.1064C58.3007 65.9497 58.2227 65.7458 58.2236 65.5345C58.2236 65.091 58.5462 64.7281 58.9897 64.6878C66.6503 63.9621 67.1745 61.8655 67.9809 54.0032C68.0212 53.5597 68.384 53.2372 68.8276 53.2372C69.2711 53.2372 69.6339 53.5597 69.6743 53.9629C70.4806 61.8655 71.0048 63.9621 78.6654 64.6475C79.1089 64.6878 79.4315 65.0507 79.4315 65.4942C79.4315 65.9377 79.1089 66.3006 78.6654 66.3409C71.1257 67.0666 70.4806 69.647 69.7146 77.6705C69.6743 78.114 69.3114 78.4366 68.8679 78.4366H68.8276Z" fill="#36454F"/>
</g>
<path fill-rule="evenodd" clip-rule="evenodd" d="M35.2409 0.0159937C35.6733 0.0153099 36.0945 0.153686 36.4423 0.410693C36.79 0.667699 37.0459 1.02971 37.1722 1.44329L44.9457 26.9774L68.1897 35.4726C68.573 35.613 68.9046 35.8665 69.1407 36.1995C69.3768 36.5325 69.5063 36.9293 69.5119 37.3374C69.5176 37.7456 69.3993 38.1459 69.1725 38.4853C68.9458 38.8247 68.6213 39.0873 68.2421 39.2384L45.1514 48.411L37.1722 75.1828C37.0478 75.5984 36.7927 75.9627 36.4448 76.2217C36.0969 76.4808 35.6747 76.6207 35.2409 76.6207C34.8072 76.6207 34.385 76.4808 34.0371 76.2217C33.6891 75.9627 33.434 75.5984 33.3096 75.1828L25.3305 48.411L2.23977 39.2384C1.86054 39.0873 1.53609 38.8247 1.30935 38.4853C1.0826 38.1459 0.964241 37.7456 0.969922 37.3374C0.975603 36.9293 1.10506 36.5325 1.34116 36.1995C1.57727 35.8665 1.9089 35.613 2.29219 35.4726L25.5361 26.9774L33.3137 1.44329C33.4397 1.03037 33.695 0.668836 34.042 0.411893C34.3889 0.15495 34.8092 0.0161743 35.2409 0.0159937ZM35.2409 8.9507L29.1003 29.1102C29.0093 29.409 28.8501 29.6825 28.6353 29.9092C28.4205 30.1359 28.1559 30.3096 27.8625 30.4166L8.64244 37.4482L27.7295 45.0282C28.0123 45.141 28.2659 45.3165 28.4712 45.5413C28.6765 45.7662 28.8282 46.0346 28.9149 46.3265L35.245 67.5504L41.567 46.3265C41.6537 46.0346 41.8054 45.7662 42.0107 45.5413C42.216 45.3165 42.4696 45.141 42.7524 45.0282L61.8394 37.4482L42.6193 30.4246C42.3259 30.3176 42.0614 30.1439 41.8466 29.9172C41.6318 29.6905 41.4726 29.417 41.3815 29.1183L35.2409 8.9507Z" fill="#36454F"/>
<path d="M66.4882 75.0901C66.085 75.0901 65.7222 74.7676 65.6819 74.3644C64.9561 67.0263 64.3916 64.6878 57.6584 64.0427C57.2552 64.0024 56.9326 63.6395 56.9326 63.2363C56.9326 62.8331 57.2552 62.4702 57.6584 62.4299C64.5529 61.7848 64.9561 60.0108 65.6819 52.6727C65.6819 52.2695 66.085 51.947 66.4882 51.947C66.8914 51.947 67.2543 52.2695 67.2946 52.6727C68.0204 60.0108 68.4639 61.7848 75.3181 62.4299C75.7213 62.4702 76.0439 62.8331 76.0439 63.2363C76.0439 63.6395 75.7213 64.0024 75.3181 64.0427C68.5445 64.6878 68.0204 67.0263 67.2946 74.4047C67.2946 74.8079 66.9317 75.1304 66.4882 75.1304V75.0901Z" fill="#36454F"/>
</svg>
