<svg width="44" height="48" viewBox="0 0 44 48" fill="none" xmlns="http://www.w3.org/2000/svg">
<path d="M16 2V16L2 40V46H42V40L28 16V2M34 26C20 20 22 34 10 28M10 2H34M28 36C28.5304 36 29.0391 35.7893 29.4142 35.4142C29.7893 35.0391 30 34.5304 30 34C30 33.4696 29.7893 32.9609 29.4142 32.5858C29.0391 32.2107 28.5304 32 28 32C27.4696 32 26.9609 32.2107 26.5858 32.5858C26.2107 32.9609 26 33.4696 26 34C26 34.5304 26.2107 35.0391 26.5858 35.4142C26.9609 35.7893 27.4696 36 28 36ZM16 40C16.5304 40 17.0391 39.7893 17.4142 39.4142C17.7893 39.0391 18 38.5304 18 38C18 37.4696 17.7893 36.9609 17.4142 36.5858C17.0391 36.2107 16.5304 36 16 36C15.4696 36 14.9609 36.2107 14.5858 36.5858C14.2107 36.9609 14 37.4696 14 38C14 38.5304 14.2107 39.0391 14.5858 39.4142C14.9609 39.7893 15.4696 40 16 40Z" stroke="#36454F" stroke-width="4"/>
</svg>
